<svg width="40" height="40" fill="none" xmlns="http://www.w3.org/2000/svg"><path d="M34.135 5.906L20.016.052 5.894 5.906 0 20.03l5.894 14.126L20.016 40l14.119-5.843 5.852-14.127-5.852-14.123z" fill="#fff"/><path d="M34.136 5.854L20.017 0 5.9 5.854.008 19.978 5.9 34.105l14.117 5.843 14.115-5.843v-11.7l-14.125 5.854-5.846-2.419-2.41-5.861 2.41-5.858 5.845-2.42 9.99 4.139 4.14-9.986z" fill="#80C7ED"/><path d="M20.011 11.709L5.904 5.864.012 19.983l5.892 14.123 14.117 5.842 14.114-5.842V22.408L20.011 28.26l-5.846-2.419-2.41-5.858 2.41-5.856 5.846-2.418z" fill="#0065A5"/><path d="M20.014 11.688l-5.86 2.425-2.416 5.866 2.417 5.87 5.86 2.425 5.866-2.427 4.149-1.722-4.146-10.005-5.87-2.432z" fill="#A7CD38"/><path d="M34.136 34.095v-11.72L40 19.945l-5.864 14.15z" fill="#E9E7B9"/><path d="M34.137 5.864L29.99 15.866l4.145 1.718L40 20.012 34.137 5.864z" fill="#E9E7B9"/><path d="M34.136 5.864l-4.145 10.002-4.142-1.714 8.287-8.288z" fill="#7AC7FF"/><path d="M34.136 5.864L25.85 14.15l-1.718-4.149 10.005-4.138z" fill="#5DAEE9"/><path d="M34.136 34.095L29.995 24.09l4.141-1.714v11.72z" fill="#1B6CA7"/><path d="M34.135 5.864H22.416L19.99 0l14.146 5.864z" fill="#62B3EE"/><path d="M34.135 34.095L19.99 39.948l2.423-5.853h11.723z" fill="#2576B1"/><path d="M34.136 34.095H22.413l1.715-4.141 10.008 4.141zm0-.001l-8.283-8.284 4.142-1.722 4.141 10.006z" fill="#1A6BA6"/><path d="M34.133 17.55l-4.146-1.718-1.714 4.146 1.716 4.146 4.142-1.715 5.864-2.431-5.862-2.428z" fill="#DFDFA0"/><path d="M30.013 15.838L28.3 19.984l-2.427-5.86 4.141 1.714z" fill="#E9E7B9"/><path d="M30.017 24.117l-4.142 1.722 2.427-5.867 1.715 4.145z" fill="#C2D074"/><path d="M25.882 14.132l-5.87-2.431 4.152-1.718 1.718 4.15z" fill="#6FC0FB"/><path d="M25.848 25.811l8.284 8.285-10.012-4.142 1.718-4.142h.01z" fill="#2576B1"/><path d="M28.305 19.977l-2.427 5.867-5.856-5.864 5.861-5.863 2.422 5.86z" fill="#D2DF7F"/><path d="M24.16 29.971l-4.148-1.714 5.867-2.428-1.718 4.142z" fill="#2172AD"/><path d="M25.885 25.836l-5.866 2.427-5.842-2.416-.008-.019 5.86-5.856 5.856 5.864z" fill="#B7CC4D"/><path d="M22.416 5.864h11.72l-10.005 4.138-1.715-4.138z" fill="#4091CC"/><path d="M24.168 29.954l-1.715 4.142h-4.848l-1.718-4.146 4.132-1.711 4.149 1.715z" fill="#13649F"/><path d="M20.029 0l2.428 5.864h-4.855L20.03 0z" fill="#6EBFFA"/><path d="M22.452 34.095l-2.424 5.853-2.423-5.853h4.847z" fill="#2172AD"/><path d="M17.645 34.095l2.423 5.853-14.15-5.853h11.727z" fill="#1A6BA6"/><path d="M20.039 19.98l-5.86 5.858-2.427-5.86 2.423-5.86 5.864 5.862z" fill="#93BE40"/><path d="M14.18 14.121l1.71-4.131 4.135 1.71-5.846 2.421z" fill="#1667A1"/><path d="M20.02 11.72l-4.136-1.71 1.718-4.146h4.855l1.714 4.138-4.151 1.717z" fill="#4091CC"/><path d="M20.029 28.258l-4.132 1.71-1.71-4.127 5.842 2.417z" fill="#1B6CA7"/><path d="M15.927 29.95l1.718 4.145H5.919l10.008-4.145z" fill="#12629E"/><path d="M5.919 5.864L20.069 0l-2.426 5.864H5.919z" fill="#85CCFF"/><path d="M17.638 5.864l-1.718 4.145L5.915 5.864h11.723z" fill="#4798D3"/><path d="M14.216 25.822l1.71 4.128-10.01 4.145 8.28-8.28.02.007z" fill="#13649F"/><path d="M11.759 19.972l2.427 5.86-.01.01-4.142-1.713 1.725-4.157z" fill="#0376AE"/><path d="M14.187 25.845l-.018-.007.011-.011.007.018z" fill="#fff"/><path d="M14.165 14.125l.008-.01 5.845-2.42 5.871 2.43-5.86 5.864-5.864-5.864z" fill="#A7CD38"/><path d="M14.177 14.128l-.007-.007h.014l-.007.007z" fill="#fff"/><path d="M11.76 19.983l-1.722-4.156 4.139-1.71.007.006-2.424 5.86z" fill="#0F609B"/><path d="M14.212 14.14h-.014l-8.28-8.28 10.005 4.145-1.711 4.135z" fill="#2172AD"/><path d="M14.198 25.815l-8.28 8.28 4.138-9.995 4.142 1.715z" fill="#0A5B96"/><path d="M14.198 14.144l-4.139 1.71-4.142-9.99 8.28 8.28z" fill="#1A6BA6"/><path d="M5.919 5.864l4.141 9.99-4.14 1.716V5.864z" fill="#2576B1"/><path d="M10.056 24.1l-4.139 9.995V22.392l4.14 1.708z" fill="#004E87"/><path d="M11.781 19.978l-1.725 4.155-4.139-1.707v-4.89l4.142-1.714 1.722 4.156z" fill="#0F609B"/><path d="M5.919 5.864V17.57L.012 20.012 5.919 5.864z" fill="#1667A1"/><path d="M5.919 34.095L.012 19.945l5.907 2.448v11.702z" fill="#004E87"/><path d="M5.919 17.536v4.886l-5.907-2.45 5.907-2.436z" fill="#0E5F9A"/></svg>